<?xml version="1.0" encoding="UTF-8" standalone="no"?>
<!DOCTYPE svg PUBLIC "-//W3C//DTD SVG 1.1//EN"
 "http://www.w3.org/Graphics/SVG/1.1/DTD/svg11.dtd">
<!-- Generated by graphviz version 2.50.0 (0)
 -->
<!-- Pages: 1 -->
<svg width="1013pt" height="764pt"
 viewBox="0.00 0.00 1013.00 764.00" xmlns="http://www.w3.org/2000/svg" xmlns:xlink="http://www.w3.org/1999/xlink">
<g id="graph0" class="graph" transform="scale(1 1) rotate(0) translate(4 760)">
<polygon fill="white" stroke="transparent" points="-4,4 -4,-760 1009,-760 1009,4 -4,4"/>
<!-- 8256174960687030670 -->
<g id="node1" class="node">
<title>8256174960687030670</title>
<polygon fill="none" stroke="black" points="356,-756 0,-756 0,-720 356,-720 356,-756"/>
<text text-anchor="middle" x="178" y="-733" font-family="Helvetica,sans-Serif" font-size="20.00">Assign(Assign, flightDate, ToDatetime)</text>
</g>
<!-- &#45;8655450016751811764 -->
<g id="node2" class="node">
<title>&#45;8655450016751811764</title>
<polygon fill="none" stroke="black" points="370,-684 150,-684 150,-648 370,-648 370,-684"/>
<text text-anchor="middle" x="260" y="-661" font-family="Helvetica,sans-Serif" font-size="20.00">ToDatetime(Projection)</text>
</g>
<!-- &#45;8655450016751811764&#45;&gt;8256174960687030670 -->
<g id="edge2" class="edge">
<title>&#45;8655450016751811764&#45;&gt;8256174960687030670</title>
<path fill="none" stroke="black" d="M239.73,-684.3C229.5,-693.03 216.94,-703.76 205.82,-713.25"/>
<polygon fill="black" stroke="black" points="203.37,-710.74 198.04,-719.9 207.91,-716.06 203.37,-710.74"/>
</g>
<!-- 3896609606159105879 -->
<g id="node3" class="node">
<title>3896609606159105879</title>
<polygon fill="none" stroke="black" points="411,-612 137,-612 137,-576 411,-576 411,-612"/>
<text text-anchor="middle" x="274" y="-589" font-family="Helvetica,sans-Serif" font-size="20.00">Projection(Assign, flightDate)</text>
</g>
<!-- 3896609606159105879&#45;&gt;&#45;8655450016751811764 -->
<g id="edge3" class="edge">
<title>3896609606159105879&#45;&gt;&#45;8655450016751811764</title>
<path fill="none" stroke="black" d="M270.54,-612.3C269,-620.02 267.14,-629.29 265.42,-637.89"/>
<polygon fill="black" stroke="black" points="261.95,-637.4 263.42,-647.9 268.81,-638.78 261.95,-637.4"/>
</g>
<!-- 332505806139106185 -->
<g id="node4" class="node">
<title>332505806139106185</title>
<polygon fill="none" stroke="black" points="364,-540 18,-540 18,-504 364,-504 364,-540"/>
<text text-anchor="middle" x="191" y="-517" font-family="Helvetica,sans-Serif" font-size="20.00">Assign(Loc, searchDate, ToDatetime)</text>
</g>
<!-- 332505806139106185&#45;&gt;8256174960687030670 -->
<g id="edge1" class="edge">
<title>332505806139106185&#45;&gt;8256174960687030670</title>
<path fill="none" stroke="black" d="M160.7,-540.2C148.12,-549.1 134.88,-561.23 128,-576 117.15,-599.31 139.12,-679.48 141,-684 145.03,-693.69 151.05,-703.37 157.07,-711.76"/>
<polygon fill="black" stroke="black" points="154.45,-714.1 163.27,-719.98 160.04,-709.89 154.45,-714.1"/>
</g>
<!-- 332505806139106185&#45;&gt;3896609606159105879 -->
<g id="edge4" class="edge">
<title>332505806139106185&#45;&gt;3896609606159105879</title>
<path fill="none" stroke="black" d="M211.52,-540.3C221.87,-549.03 234.59,-559.76 245.84,-569.25"/>
<polygon fill="black" stroke="black" points="243.82,-572.12 253.72,-575.9 248.33,-566.77 243.82,-572.12"/>
</g>
<!-- &#45;598331079373811373 -->
<g id="node5" class="node">
<title>&#45;598331079373811373</title>
<polygon fill="none" stroke="black" points="381,-468 161,-468 161,-432 381,-432 381,-468"/>
<text text-anchor="middle" x="271" y="-445" font-family="Helvetica,sans-Serif" font-size="20.00">ToDatetime(Projection)</text>
</g>
<!-- &#45;598331079373811373&#45;&gt;332505806139106185 -->
<g id="edge5" class="edge">
<title>&#45;598331079373811373&#45;&gt;332505806139106185</title>
<path fill="none" stroke="black" d="M251.22,-468.3C241.25,-477.03 228.99,-487.76 218.14,-497.25"/>
<polygon fill="black" stroke="black" points="215.77,-494.68 210.55,-503.9 220.38,-499.94 215.77,-494.68"/>
</g>
<!-- &#45;1634172658851405857 -->
<g id="node6" class="node">
<title>&#45;1634172658851405857</title>
<polygon fill="none" stroke="black" points="414,-396 150,-396 150,-360 414,-360 414,-396"/>
<text text-anchor="middle" x="282" y="-373" font-family="Helvetica,sans-Serif" font-size="20.00">Projection(Loc, searchDate)</text>
</g>
<!-- &#45;1634172658851405857&#45;&gt;&#45;598331079373811373 -->
<g id="edge7" class="edge">
<title>&#45;1634172658851405857&#45;&gt;&#45;598331079373811373</title>
<path fill="none" stroke="black" d="M279.28,-396.3C278.07,-404.02 276.61,-413.29 275.26,-421.89"/>
<polygon fill="black" stroke="black" points="271.78,-421.47 273.69,-431.9 278.7,-422.56 271.78,-421.47"/>
</g>
<!-- 4819473056406372515 -->
<g id="node7" class="node">
<title>4819473056406372515</title>
<polygon fill="none" stroke="black" points="351,-324 53,-324 53,-288 351,-288 351,-324"/>
<text text-anchor="middle" x="202" y="-301" font-family="Helvetica,sans-Serif" font-size="20.00">Loc(ReadParquetFSSpec, And)</text>
</g>
<!-- 4819473056406372515&#45;&gt;332505806139106185 -->
<g id="edge6" class="edge">
<title>4819473056406372515&#45;&gt;332505806139106185</title>
<path fill="none" stroke="black" d="M172.96,-324.16C160.68,-333.13 147.69,-345.32 141,-360 131.13,-381.66 149.11,-461.02 152,-468 156.07,-477.81 162.33,-487.49 168.65,-495.84"/>
<polygon fill="black" stroke="black" points="165.94,-498.06 174.91,-503.7 171.42,-493.69 165.94,-498.06"/>
</g>
<!-- 4819473056406372515&#45;&gt;&#45;1634172658851405857 -->
<g id="edge8" class="edge">
<title>4819473056406372515&#45;&gt;&#45;1634172658851405857</title>
<path fill="none" stroke="black" d="M221.78,-324.3C231.75,-333.03 244.01,-343.76 254.86,-353.25"/>
<polygon fill="black" stroke="black" points="252.62,-355.94 262.45,-359.9 257.23,-350.68 252.62,-355.94"/>
</g>
<!-- 4305668365327969524 -->
<g id="node8" class="node">
<title>4305668365327969524</title>
<polygon fill="none" stroke="black" points="392,-252 258,-252 258,-216 392,-216 392,-252"/>
<text text-anchor="middle" x="325" y="-229" font-family="Helvetica,sans-Serif" font-size="20.00">And(EQ, GT)</text>
</g>
<!-- 4305668365327969524&#45;&gt;4819473056406372515 -->
<g id="edge10" class="edge">
<title>4305668365327969524&#45;&gt;4819473056406372515</title>
<path fill="none" stroke="black" d="M294.91,-252.12C278.68,-261.36 258.46,-272.87 241.03,-282.79"/>
<polygon fill="black" stroke="black" points="239.16,-279.82 232.2,-287.81 242.63,-285.91 239.16,-279.82"/>
</g>
<!-- &#45;8233501784527330117 -->
<g id="node9" class="node">
<title>&#45;8233501784527330117</title>
<polygon fill="none" stroke="black" points="409.5,-180 240.5,-180 240.5,-144 409.5,-144 409.5,-180"/>
<text text-anchor="middle" x="325" y="-157" font-family="Helvetica,sans-Serif" font-size="20.00">GT(Projection, 0)</text>
</g>
<!-- &#45;8233501784527330117&#45;&gt;4305668365327969524 -->
<g id="edge11" class="edge">
<title>&#45;8233501784527330117&#45;&gt;4305668365327969524</title>
<path fill="none" stroke="black" d="M325,-180.3C325,-188.02 325,-197.29 325,-205.89"/>
<polygon fill="black" stroke="black" points="321.5,-205.9 325,-215.9 328.5,-205.9 321.5,-205.9"/>
</g>
<!-- 1600233714559084917 -->
<g id="node10" class="node">
<title>1600233714559084917</title>
<polygon fill="none" stroke="black" points="542.5,-108 107.5,-108 107.5,-72 542.5,-72 542.5,-108"/>
<text text-anchor="middle" x="325" y="-85" font-family="Helvetica,sans-Serif" font-size="20.00">Projection(ReadParquetFSSpec, elapsedDays)</text>
</g>
<!-- 1600233714559084917&#45;&gt;&#45;8233501784527330117 -->
<g id="edge13" class="edge">
<title>1600233714559084917&#45;&gt;&#45;8233501784527330117</title>
<path fill="none" stroke="black" d="M325,-108.3C325,-116.02 325,-125.29 325,-133.89"/>
<polygon fill="black" stroke="black" points="321.5,-133.9 325,-143.9 328.5,-133.9 321.5,-133.9"/>
</g>
<!-- &#45;5051203828869945720 -->
<g id="node11" class="node">
<title>&#45;5051203828869945720</title>
<polygon fill="none" stroke="black" points="428,-36 222,-36 222,0 428,0 428,-36"/>
<text text-anchor="middle" x="325" y="-13" font-family="Helvetica,sans-Serif" font-size="20.00">ReadParquetFSSpec</text>
</g>
<!-- &#45;5051203828869945720&#45;&gt;4819473056406372515 -->
<g id="edge9" class="edge">
<title>&#45;5051203828869945720&#45;&gt;4819473056406372515</title>
<path fill="none" stroke="black" d="M221.72,-30.57C169.52,-38.77 113.91,-51.95 98,-72 45.19,-138.57 129.91,-236.19 175.71,-280.96"/>
<polygon fill="black" stroke="black" points="173.33,-283.53 182.97,-287.93 178.18,-278.48 173.33,-283.53"/>
</g>
<!-- &#45;5051203828869945720&#45;&gt;1600233714559084917 -->
<g id="edge14" class="edge">
<title>&#45;5051203828869945720&#45;&gt;1600233714559084917</title>
<path fill="none" stroke="black" d="M325,-36.3C325,-44.02 325,-53.29 325,-61.89"/>
<polygon fill="black" stroke="black" points="321.5,-61.9 325,-71.9 328.5,-61.9 321.5,-61.9"/>
</g>
<!-- &#45;2112868249483971888 -->
<g id="node13" class="node">
<title>&#45;2112868249483971888</title>
<polygon fill="none" stroke="black" points="1005,-108 561,-108 561,-72 1005,-72 1005,-108"/>
<text text-anchor="middle" x="783" y="-85" font-family="Helvetica,sans-Serif" font-size="20.00">Projection(ReadParquetFSSpec, startingAirport)</text>
</g>
<!-- &#45;5051203828869945720&#45;&gt;&#45;2112868249483971888 -->
<g id="edge16" class="edge">
<title>&#45;5051203828869945720&#45;&gt;&#45;2112868249483971888</title>
<path fill="none" stroke="black" d="M428.07,-34.75C497.23,-45.32 588.62,-59.29 661.35,-70.41"/>
<polygon fill="black" stroke="black" points="661.07,-73.9 671.48,-71.96 662.12,-66.98 661.07,-73.9"/>
</g>
<!-- 6291314772494992100 -->
<g id="node12" class="node">
<title>6291314772494992100</title>
<polygon fill="none" stroke="black" points="751,-180 557,-180 557,-144 751,-144 751,-180"/>
<text text-anchor="middle" x="654" y="-157" font-family="Helvetica,sans-Serif" font-size="20.00">EQ(Projection, JFK)</text>
</g>
<!-- 6291314772494992100&#45;&gt;4305668365327969524 -->
<g id="edge12" class="edge">
<title>6291314772494992100&#45;&gt;4305668365327969524</title>
<path fill="none" stroke="black" d="M573.94,-180.03C521.58,-191.17 453.57,-205.64 401.87,-216.64"/>
<polygon fill="black" stroke="black" points="401.14,-213.22 392.08,-218.73 402.59,-220.07 401.14,-213.22"/>
</g>
<!-- &#45;2112868249483971888&#45;&gt;6291314772494992100 -->
<g id="edge15" class="edge">
<title>&#45;2112868249483971888&#45;&gt;6291314772494992100</title>
<path fill="none" stroke="black" d="M751.44,-108.12C734.34,-117.4 713.02,-128.97 694.68,-138.92"/>
<polygon fill="black" stroke="black" points="692.8,-135.96 685.68,-143.81 696.14,-142.12 692.8,-135.96"/>
</g>
</g>
</svg>
